<?xml version="1.0" encoding="UTF-8" standalone="no"?>
<!DOCTYPE svg PUBLIC "-//W3C//DTD SVG 1.1//EN"
 "http://www.w3.org/Graphics/SVG/1.1/DTD/svg11.dtd">
<!-- Generated by graphviz version 2.43.0 (0)
 -->
<!-- Title: G Pages: 1 -->
<svg width="1085pt" height="224pt"
 viewBox="0.00 0.00 1085.00 224.00" xmlns="http://www.w3.org/2000/svg" xmlns:xlink="http://www.w3.org/1999/xlink">
<g id="graph0" class="graph" transform="scale(1 1) rotate(0) translate(4 220)">
<title>G</title>
<polygon fill="white" stroke="transparent" points="-4,4 -4,-220 1081,-220 1081,4 -4,4"/>
<!-- A -->
<g id="node1" class="node">
<title>A</title>
<path fill="lightgreen" stroke="black" d="M153,-137C153,-137 12,-137 12,-137 6,-137 0,-131 0,-125 0,-125 0,-113 0,-113 0,-107 6,-101 12,-101 12,-101 153,-101 153,-101 159,-101 165,-107 165,-113 165,-113 165,-125 165,-125 165,-131 159,-137 153,-137"/>
<text text-anchor="middle" x="82.5" y="-115.3" font-family="Courier,monospace" font-size="14.00">mtc create project</text>
</g>
<!-- B -->
<g id="node2" class="node">
<title>B</title>
<path fill="lightgrey" stroke="black" d="M329,-138C329,-138 213,-138 213,-138 207,-138 201,-132 201,-126 201,-126 201,-112 201,-112 201,-106 207,-100 213,-100 213,-100 329,-100 329,-100 335,-100 341,-106 341,-112 341,-112 341,-126 341,-126 341,-132 335,-138 329,-138"/>
<text text-anchor="middle" x="271" y="-122.8" font-family="Courier,monospace" font-size="14.00">cd project</text>
<text text-anchor="middle" x="271" y="-107.8" font-family="Courier,monospace" font-size="14.00">edit problem.py</text>
</g>
<!-- A&#45;&gt;B -->
<g id="edge1" class="edge">
<title>A&#45;&gt;B</title>
<path fill="none" stroke="black" d="M165.03,-119C173.53,-119 182.17,-119 190.64,-119"/>
<polygon fill="black" stroke="black" points="190.88,-122.5 200.88,-119 190.88,-115.5 190.88,-122.5"/>
</g>
<!-- C -->
<g id="node3" class="node">
<title>C</title>
<path fill="lightgreen" stroke="black" d="M522,-153C522,-153 389,-153 389,-153 383,-153 377,-147 377,-141 377,-141 377,-97 377,-97 377,-91 383,-85 389,-85 389,-85 522,-85 522,-85 528,-85 534,-91 534,-97 534,-97 534,-141 534,-141 534,-147 528,-153 522,-153"/>
<text text-anchor="middle" x="455.5" y="-137.8" font-family="Courier,monospace" font-size="14.00">mtc init&#45;conf</text>
<text text-anchor="middle" x="455.5" y="-122.8" font-family="Courier,monospace" font-size="14.00">[then optionally]</text>
<text text-anchor="middle" x="455.5" y="-107.8" font-family="Courier,monospace" font-size="14.00">mtc configurator</text>
<text text-anchor="middle" x="455.5" y="-92.8" font-family="Courier,monospace" font-size="14.00">[Web UI]</text>
</g>
<!-- B&#45;&gt;C -->
<g id="edge2" class="edge">
<title>B&#45;&gt;C</title>
<path fill="none" stroke="black" d="M341.26,-119C349.59,-119 358.19,-119 366.74,-119"/>
<polygon fill="black" stroke="black" points="366.74,-122.5 376.74,-119 366.74,-115.5 366.74,-122.5"/>
</g>
<!-- Ctrain -->
<g id="node4" class="node">
<title>Ctrain</title>
<path fill="lightgreen" stroke="black" d="M834.5,-138C834.5,-138 586.5,-138 586.5,-138 580.5,-138 574.5,-132 574.5,-126 574.5,-126 574.5,-112 574.5,-112 574.5,-106 580.5,-100 586.5,-100 586.5,-100 834.5,-100 834.5,-100 840.5,-100 846.5,-106 846.5,-112 846.5,-112 846.5,-126 846.5,-126 846.5,-132 840.5,-138 834.5,-138"/>
<text text-anchor="middle" x="710.5" y="-122.8" font-family="Courier,monospace" font-size="14.00">mtc train</text>
<text text-anchor="middle" x="710.5" y="-107.8" font-family="Courier,monospace" font-size="14.00">(mtc compile &#45;&#45;target training)</text>
</g>
<!-- C&#45;&gt;Ctrain -->
<g id="edge3" class="edge">
<title>C&#45;&gt;Ctrain</title>
<path fill="none" stroke="black" d="M534.13,-119C543.71,-119 553.74,-119 563.94,-119"/>
<polygon fill="black" stroke="black" points="564.19,-122.5 574.19,-119 564.19,-115.5 564.19,-122.5"/>
</g>
<!-- Cinfer -->
<g id="node5" class="node">
<title>Cinfer</title>
<path fill="lightgreen" stroke="black" d="M839,-194C839,-194 582,-194 582,-194 576,-194 570,-188 570,-182 570,-182 570,-168 570,-168 570,-162 576,-156 582,-156 582,-156 839,-156 839,-156 845,-156 851,-162 851,-168 851,-168 851,-182 851,-182 851,-188 845,-194 839,-194"/>
<text text-anchor="middle" x="710.5" y="-178.8" font-family="Courier,monospace" font-size="14.00">mtc inference&#45;server</text>
<text text-anchor="middle" x="710.5" y="-163.8" font-family="Courier,monospace" font-size="14.00">[mtc compile &#45;&#45;target inference]</text>
</g>
<!-- C&#45;&gt;Cinfer -->
<g id="edge4" class="edge">
<title>C&#45;&gt;Cinfer</title>
<path fill="none" stroke="black" d="M534.24,-138.66C546.19,-141.54 558.41,-144.41 570,-147 580.34,-149.31 591.12,-151.63 601.92,-153.9"/>
<polygon fill="black" stroke="black" points="601.32,-157.35 611.82,-155.96 602.75,-150.5 601.32,-157.35"/>
</g>
<!-- Cgeom -->
<g id="node6" class="node">
<title>Cgeom</title>
<path fill="lightgreen" stroke="black" d="M748,-82C748,-82 673,-82 673,-82 667,-82 661,-76 661,-70 661,-70 661,-58 661,-58 661,-52 667,-46 673,-46 673,-46 748,-46 748,-46 754,-46 760,-52 760,-58 760,-58 760,-70 760,-70 760,-76 754,-82 748,-82"/>
<text text-anchor="middle" x="710.5" y="-60.3" font-family="Courier,monospace" font-size="14.00">mtc sample</text>
</g>
<!-- C&#45;&gt;Cgeom -->
<g id="edge6" class="edge">
<title>C&#45;&gt;Cgeom</title>
<path fill="none" stroke="black" d="M534.22,-99.27C546.18,-96.4 558.4,-93.55 570,-91 596.47,-85.18 625.91,-79.38 650.9,-74.66"/>
<polygon fill="black" stroke="black" points="651.77,-78.06 660.96,-72.77 650.48,-71.18 651.77,-78.06"/>
</g>
<!-- D -->
<g id="node8" class="node">
<title>D</title>
<path fill="lightgrey" stroke="black" d="M1065,-216C1065,-216 899,-216 899,-216 893,-216 887,-210 887,-204 887,-204 887,-192 887,-192 887,-186 893,-180 899,-180 899,-180 1065,-180 1065,-180 1071,-180 1077,-186 1077,-192 1077,-192 1077,-204 1077,-204 1077,-210 1071,-216 1065,-216"/>
<text text-anchor="middle" x="982" y="-194.3" font-family="Courier,monospace" font-size="14.00">Query from Jupyter/OV</text>
</g>
<!-- Cinfer&#45;&gt;D -->
<g id="edge5" class="edge">
<title>Cinfer&#45;&gt;D</title>
<path fill="none" stroke="black" d="M851.38,-186.94C859.95,-187.67 868.48,-188.4 876.85,-189.11"/>
<polygon fill="black" stroke="black" points="876.71,-192.61 886.97,-189.98 877.31,-185.64 876.71,-192.61"/>
</g>
<!-- Ctrain_sampled -->
<g id="node7" class="node">
<title>Ctrain_sampled</title>
<path fill="lightgreen" stroke="black" d="M1056.5,-90C1056.5,-90 907.5,-90 907.5,-90 901.5,-90 895.5,-84 895.5,-78 895.5,-78 895.5,-66 895.5,-66 895.5,-60 901.5,-54 907.5,-54 907.5,-54 1056.5,-54 1056.5,-54 1062.5,-54 1068.5,-60 1068.5,-66 1068.5,-66 1068.5,-78 1068.5,-78 1068.5,-84 1062.5,-90 1056.5,-90"/>
<text text-anchor="middle" x="982" y="-68.3" font-family="Courier,monospace" font-size="14.00">mtc train &#45;&#45;sampled</text>
</g>
<!-- Cgeom&#45;&gt;Ctrain_sampled -->
<g id="edge8" class="edge">
<title>Cgeom&#45;&gt;Ctrain_sampled</title>
<path fill="none" stroke="black" d="M760.3,-65.45C795.13,-66.48 843.1,-67.91 885.42,-69.16"/>
<polygon fill="black" stroke="black" points="885.39,-72.66 895.49,-69.46 885.59,-65.67 885.39,-72.66"/>
</g>
<!-- Dgeom -->
<g id="node9" class="node">
<title>Dgeom</title>
<path fill="lightgrey" stroke="black" d="M1061,-36C1061,-36 903,-36 903,-36 897,-36 891,-30 891,-24 891,-24 891,-12 891,-12 891,-6 897,0 903,0 903,0 1061,0 1061,0 1067,0 1073,-6 1073,-12 1073,-12 1073,-24 1073,-24 1073,-30 1067,-36 1061,-36"/>
<text text-anchor="middle" x="982" y="-14.3" font-family="Courier,monospace" font-size="14.00">Visualize (e.g., OV)</text>
</g>
<!-- Cgeom&#45;&gt;Dgeom -->
<g id="edge7" class="edge">
<title>Cgeom&#45;&gt;Dgeom</title>
<path fill="none" stroke="black" d="M760.3,-55.67C793.87,-49.94 839.63,-42.13 880.79,-35.1"/>
<polygon fill="black" stroke="black" points="881.6,-38.52 890.87,-33.38 880.42,-31.62 881.6,-38.52"/>
</g>
<!-- D&#45;&gt;B -->
<g id="edge10" class="edge">
<title>D&#45;&gt;B</title>
<path fill="none" stroke="black" stroke-dasharray="5,2" d="M886.93,-202.05C874.84,-202.44 862.63,-202.78 851,-203 639.59,-207.06 579.07,-224.29 377,-162 359.14,-156.49 340.1,-149.16 323.2,-142.12"/>
<polygon fill="black" stroke="black" points="324.1,-138.7 313.52,-138.02 321.36,-145.14 324.1,-138.7"/>
</g>
<!-- Dgeom&#45;&gt;B -->
<g id="edge9" class="edge">
<title>Dgeom&#45;&gt;B</title>
<path fill="none" stroke="black" stroke-dasharray="5,2" d="M890.85,-15.7C770.9,-15.09 553.44,-22.57 377,-76 358.87,-81.49 339.54,-88.93 322.47,-96.07"/>
<polygon fill="black" stroke="black" points="321.07,-92.86 313.24,-99.99 323.81,-99.3 321.07,-92.86"/>
</g>
</g>
</svg>
