<?xml version="1.0" encoding="UTF-8" standalone="no"?>
<!DOCTYPE svg PUBLIC "-//W3C//DTD SVG 1.1//EN"
 "http://www.w3.org/Graphics/SVG/1.1/DTD/svg11.dtd">
<!-- Generated by graphviz version 2.43.0 (0)
 -->
<!-- Title: G Pages: 1 -->
<svg width="1077pt" height="224pt"
 viewBox="0.00 0.00 1077.00 224.00" xmlns="http://www.w3.org/2000/svg" xmlns:xlink="http://www.w3.org/1999/xlink">
<g id="graph0" class="graph" transform="scale(1 1) rotate(0) translate(4 220)">
<title>G</title>
<polygon fill="white" stroke="transparent" points="-4,4 -4,-220 1073,-220 1073,4 -4,4"/>
<!-- A -->
<g id="node1" class="node">
<title>A</title>
<path fill="lightgreen" stroke="black" d="M153,-137C153,-137 12,-137 12,-137 6,-137 0,-131 0,-125 0,-125 0,-113 0,-113 0,-107 6,-101 12,-101 12,-101 153,-101 153,-101 159,-101 165,-107 165,-113 165,-113 165,-125 165,-125 165,-131 159,-137 153,-137"/>
<text text-anchor="middle" x="82.5" y="-115.3" font-family="Courier,monospace" font-size="14.00">mtc create project</text>
</g>
<!-- B -->
<g id="node2" class="node">
<title>B</title>
<path fill="lightgrey" stroke="black" d="M329,-138C329,-138 213,-138 213,-138 207,-138 201,-132 201,-126 201,-126 201,-112 201,-112 201,-106 207,-100 213,-100 213,-100 329,-100 329,-100 335,-100 341,-106 341,-112 341,-112 341,-126 341,-126 341,-132 335,-138 329,-138"/>
<text text-anchor="middle" x="271" y="-122.8" font-family="Courier,monospace" font-size="14.00">cd project</text>
<text text-anchor="middle" x="271" y="-107.8" font-family="Courier,monospace" font-size="14.00">edit problem.py</text>
</g>
<!-- A&#45;&gt;B -->
<g id="edge1" class="edge">
<title>A&#45;&gt;B</title>
<path fill="none" stroke="black" d="M165.03,-119C173.53,-119 182.17,-119 190.64,-119"/>
<polygon fill="black" stroke="black" points="190.88,-122.5 200.88,-119 190.88,-115.5 190.88,-122.5"/>
</g>
<!-- C -->
<g id="node3" class="node">
<title>C</title>
<path fill="lightgreen" stroke="black" d="M514,-138C514,-138 389,-138 389,-138 383,-138 377,-132 377,-126 377,-126 377,-112 377,-112 377,-106 383,-100 389,-100 389,-100 514,-100 514,-100 520,-100 526,-106 526,-112 526,-112 526,-126 526,-126 526,-132 520,-138 514,-138"/>
<text text-anchor="middle" x="451.5" y="-122.8" font-family="Courier,monospace" font-size="14.00">mtc configurator</text>
<text text-anchor="middle" x="451.5" y="-107.8" font-family="Courier,monospace" font-size="14.00">[Web UI]</text>
</g>
<!-- B&#45;&gt;C -->
<g id="edge2" class="edge">
<title>B&#45;&gt;C</title>
<path fill="none" stroke="black" d="M341.01,-119C349.47,-119 358.19,-119 366.84,-119"/>
<polygon fill="black" stroke="black" points="366.94,-122.5 376.94,-119 366.94,-115.5 366.94,-122.5"/>
</g>
<!-- Ctrain -->
<g id="node4" class="node">
<title>Ctrain</title>
<path fill="lightgreen" stroke="black" d="M826.5,-138C826.5,-138 578.5,-138 578.5,-138 572.5,-138 566.5,-132 566.5,-126 566.5,-126 566.5,-112 566.5,-112 566.5,-106 572.5,-100 578.5,-100 578.5,-100 826.5,-100 826.5,-100 832.5,-100 838.5,-106 838.5,-112 838.5,-112 838.5,-126 838.5,-126 838.5,-132 832.5,-138 826.5,-138"/>
<text text-anchor="middle" x="702.5" y="-122.8" font-family="Courier,monospace" font-size="14.00">mtc train</text>
<text text-anchor="middle" x="702.5" y="-107.8" font-family="Courier,monospace" font-size="14.00">(mtc compile &#45;&#45;target training)</text>
</g>
<!-- C&#45;&gt;Ctrain -->
<g id="edge3" class="edge">
<title>C&#45;&gt;Ctrain</title>
<path fill="none" stroke="black" d="M526.2,-119C535.77,-119 545.83,-119 556.08,-119"/>
<polygon fill="black" stroke="black" points="556.38,-122.5 566.38,-119 556.38,-115.5 556.38,-122.5"/>
</g>
<!-- Cinfer -->
<g id="node5" class="node">
<title>Cinfer</title>
<path fill="lightgreen" stroke="black" d="M831,-194C831,-194 574,-194 574,-194 568,-194 562,-188 562,-182 562,-182 562,-168 562,-168 562,-162 568,-156 574,-156 574,-156 831,-156 831,-156 837,-156 843,-162 843,-168 843,-168 843,-182 843,-182 843,-188 837,-194 831,-194"/>
<text text-anchor="middle" x="702.5" y="-178.8" font-family="Courier,monospace" font-size="14.00">mtc inference&#45;server</text>
<text text-anchor="middle" x="702.5" y="-163.8" font-family="Courier,monospace" font-size="14.00">[mtc compile &#45;&#45;target inference]</text>
</g>
<!-- C&#45;&gt;Cinfer -->
<g id="edge4" class="edge">
<title>C&#45;&gt;Cinfer</title>
<path fill="none" stroke="black" d="M524.82,-138.06C537.2,-141.16 549.95,-144.25 562,-147 572.23,-149.33 582.91,-151.66 593.61,-153.93"/>
<polygon fill="black" stroke="black" points="592.92,-157.36 603.42,-155.99 594.36,-150.51 592.92,-157.36"/>
</g>
<!-- Cgeom -->
<g id="node6" class="node">
<title>Cgeom</title>
<path fill="lightgreen" stroke="black" d="M814.5,-82C814.5,-82 590.5,-82 590.5,-82 584.5,-82 578.5,-76 578.5,-70 578.5,-70 578.5,-58 578.5,-58 578.5,-52 584.5,-46 590.5,-46 590.5,-46 814.5,-46 814.5,-46 820.5,-46 826.5,-52 826.5,-58 826.5,-58 826.5,-70 826.5,-70 826.5,-76 820.5,-82 814.5,-82"/>
<text text-anchor="middle" x="702.5" y="-60.3" font-family="Courier,monospace" font-size="14.00">mtc compile &#45;&#45;target sampler</text>
</g>
<!-- C&#45;&gt;Cgeom -->
<g id="edge6" class="edge">
<title>C&#45;&gt;Cgeom</title>
<path fill="none" stroke="black" d="M524.51,-99.94C536.98,-96.83 549.84,-93.73 562,-91 572.41,-88.66 583.29,-86.35 594.17,-84.11"/>
<polygon fill="black" stroke="black" points="595.06,-87.5 604.16,-82.07 593.67,-80.64 595.06,-87.5"/>
</g>
<!-- D -->
<g id="node8" class="node">
<title>D</title>
<path fill="lightgrey" stroke="black" d="M1057,-216C1057,-216 891,-216 891,-216 885,-216 879,-210 879,-204 879,-204 879,-192 879,-192 879,-186 885,-180 891,-180 891,-180 1057,-180 1057,-180 1063,-180 1069,-186 1069,-192 1069,-192 1069,-204 1069,-204 1069,-210 1063,-216 1057,-216"/>
<text text-anchor="middle" x="974" y="-194.3" font-family="Courier,monospace" font-size="14.00">Query from Jupyter/OV</text>
</g>
<!-- Cinfer&#45;&gt;D -->
<g id="edge5" class="edge">
<title>Cinfer&#45;&gt;D</title>
<path fill="none" stroke="black" d="M843.38,-186.94C851.95,-187.67 860.48,-188.4 868.85,-189.11"/>
<polygon fill="black" stroke="black" points="868.71,-192.61 878.97,-189.98 869.31,-185.64 868.71,-192.61"/>
</g>
<!-- Ctrain_sampled -->
<g id="node7" class="node">
<title>Ctrain_sampled</title>
<path fill="lightgreen" stroke="black" d="M1048.5,-90C1048.5,-90 899.5,-90 899.5,-90 893.5,-90 887.5,-84 887.5,-78 887.5,-78 887.5,-66 887.5,-66 887.5,-60 893.5,-54 899.5,-54 899.5,-54 1048.5,-54 1048.5,-54 1054.5,-54 1060.5,-60 1060.5,-66 1060.5,-66 1060.5,-78 1060.5,-78 1060.5,-84 1054.5,-90 1048.5,-90"/>
<text text-anchor="middle" x="974" y="-68.3" font-family="Courier,monospace" font-size="14.00">mtc train &#45;&#45;sampled</text>
</g>
<!-- Cgeom&#45;&gt;Ctrain_sampled -->
<g id="edge8" class="edge">
<title>Cgeom&#45;&gt;Ctrain_sampled</title>
<path fill="none" stroke="black" d="M826.81,-67.66C843.69,-68.16 860.8,-68.67 877.08,-69.15"/>
<polygon fill="black" stroke="black" points="877.01,-72.65 887.11,-69.45 877.22,-65.66 877.01,-72.65"/>
</g>
<!-- Dgeom -->
<g id="node9" class="node">
<title>Dgeom</title>
<path fill="lightgrey" stroke="black" d="M1053,-36C1053,-36 895,-36 895,-36 889,-36 883,-30 883,-24 883,-24 883,-12 883,-12 883,-6 889,0 895,0 895,0 1053,0 1053,0 1059,0 1065,-6 1065,-12 1065,-12 1065,-24 1065,-24 1065,-30 1059,-36 1053,-36"/>
<text text-anchor="middle" x="974" y="-14.3" font-family="Courier,monospace" font-size="14.00">Visualize (e.g., OV)</text>
</g>
<!-- Cgeom&#45;&gt;Dgeom -->
<g id="edge7" class="edge">
<title>Cgeom&#45;&gt;Dgeom</title>
<path fill="none" stroke="black" d="M809.24,-45.95C830.15,-42.38 852.04,-38.65 872.76,-35.11"/>
<polygon fill="black" stroke="black" points="873.56,-38.52 882.83,-33.39 872.38,-31.62 873.56,-38.52"/>
</g>
<!-- D&#45;&gt;B -->
<g id="edge10" class="edge">
<title>D&#45;&gt;B</title>
<path fill="none" stroke="black" stroke-dasharray="5,2" d="M878.93,-202.05C866.84,-202.44 854.63,-202.78 843,-203 718.13,-205.4 685.65,-220.55 562,-203 480.19,-191.39 389.18,-162.23 331.31,-141.53"/>
<polygon fill="black" stroke="black" points="332.21,-138.14 321.61,-138.03 329.83,-144.72 332.21,-138.14"/>
</g>
<!-- Dgeom&#45;&gt;B -->
<g id="edge9" class="edge">
<title>Dgeom&#45;&gt;B</title>
<path fill="none" stroke="black" stroke-dasharray="5,2" d="M883,-16.26C799.32,-16.03 671.46,-19.24 562,-37 482.18,-49.95 393.03,-77.16 334.92,-96.68"/>
<polygon fill="black" stroke="black" points="333.5,-93.46 325.15,-99.99 335.75,-100.09 333.5,-93.46"/>
</g>
<!-- docs -->
<g id="node10" class="node">
<title>docs</title>
<path fill="lightgreen" stroke="black" d="M112,-193C112,-193 53,-193 53,-193 47,-193 41,-187 41,-181 41,-181 41,-167 41,-167 41,-161 47,-155 53,-155 53,-155 112,-155 112,-155 118,-155 124,-161 124,-167 124,-167 124,-181 124,-181 124,-187 118,-193 112,-193"/>
<text text-anchor="middle" x="82.5" y="-177.8" font-family="Courier,monospace" font-size="14.00">mtc docs</text>
<text text-anchor="middle" x="82.5" y="-162.8" font-family="Courier,monospace" font-size="14.00">(server)</text>
</g>
</g>
</svg>
